<?xml version="1.0" encoding="utf-8"?>
<!-- Generator: Adobe Illustrator 19.2.1, SVG Export Plug-In . SVG Version: 6.00 Build 0)  -->
<svg version="1.1" id="_x31_" xmlns="http://www.w3.org/2000/svg" xmlns:xlink="http://www.w3.org/1999/xlink" x="0px" y="0px"
	 width="126.3px" height="27px" viewBox="0 0 126.3 27" style="enable-background:new 0 0 126.3 27;" xml:space="preserve">
<style type="text/css">
	.st0{fill:#FFFFFF;stroke:#FFFFFF;stroke-miterlimit:10;}
	.st1{fill-rule:evenodd;clip-rule:evenodd;fill:#FFFFFF;stroke:#FEFEFE;stroke-width:1.2189;stroke-miterlimit:10;}
	.st2{fill-rule:evenodd;clip-rule:evenodd;fill:#FFFFFF;}
	.st3{fill:#FFFFFF;}
</style>
<g>
	<path class="st0" d="M16.1,6.4c0.4,0,0.7,0.3,0.7,0.7c0,0.4-0.3,0.7-0.7,0.7c-0.4,0-0.7-0.3-0.7-0.7C15.3,6.7,15.6,6.4,16.1,6.4
		L16.1,6.4z"/>
	<path class="st0" d="M22.6,11.9c0.4,0,0.7,0.3,0.7,0.7s-0.3,0.7-0.7,0.7c-0.4,0-0.7-0.3-0.7-0.7S22.2,11.9,22.6,11.9L22.6,11.9z"/>
	<path class="st1" d="M18.1,14.5c0.4,0,0.7,0.3,0.7,0.7c0,0.4-0.3,0.7-0.7,0.7c-0.4,0-0.7-0.3-0.7-0.7
		C17.3,14.8,17.6,14.5,18.1,14.5L18.1,14.5z"/>
	<path class="st1" d="M6.1,23.7c0.4,0,0.7,0.3,0.7,0.7c0,0.4-0.3,0.7-0.7,0.7c-0.4,0-0.7-0.3-0.7-0.7C5.3,24.1,5.7,23.7,6.1,23.7
		L6.1,23.7z"/>
	<path class="st1" d="M11.1,23.6c0.4,0,0.7,0.3,0.7,0.7c0,0.4-0.3,0.7-0.7,0.7c-0.4,0-0.7-0.3-0.7-0.7C10.4,24,10.7,23.6,11.1,23.6
		L11.1,23.6z"/>
	<path class="st1" d="M13,1.9c0.3,0,0.5,0.2,0.5,0.5c0,0.3-0.2,0.5-0.5,0.5c-0.3,0-0.5-0.2-0.5-0.5C12.6,2.1,12.8,1.9,13,1.9L13,1.9
		z"/>
	<g>
		<defs>
			<path id="SVGID_1_" d="M13.5,10.7c1.5,0,2.8,1.2,2.8,2.8s-1.2,2.8-2.8,2.8s-2.8-1.2-2.8-2.8S12,10.7,13.5,10.7L13.5,10.7z
				 M13.6,8.6c1.4,0,2.6,0.6,3.5,1.5c0.9,0.9,1.5,2.1,1.5,3.5c0,1.4-0.6,2.6-1.5,3.5c-0.9,0.9-2.1,1.5-3.5,1.5l0,0
				c-1.4,0-2.6-0.6-3.5-1.5c-0.9-0.9-1.5-2.1-1.5-3.5c0-1.4,0.6-2.6,1.5-3.5C11,9.2,12.2,8.6,13.6,8.6L13.6,8.6z M16.9,10.3
				c-0.8-0.8-2-1.4-3.3-1.4c-1.3,0-2.5,0.5-3.3,1.4c-0.8,0.8-1.4,2-1.4,3.3c0,1.3,0.5,2.5,1.4,3.3c0.8,0.8,2,1.4,3.3,1.4l0,0
				c1.3,0,2.5-0.5,3.3-1.4c0.8-0.8,1.4-2,1.4-3.3C18.2,12.3,17.7,11.1,16.9,10.3L16.9,10.3z M13.6,6.5c1.9,0,3.7,0.8,5,2.1
				c1.3,1.3,2.1,3,2.1,5c0,1.9-0.8,3.7-2.1,5c-1.3,1.3-3,2.1-5,2.1c-1.9,0-3.7-0.8-5-2.1c-1.3-1.3-2.1-3-2.1-5c0-1.9,0.8-3.7,2.1-5
				C9.9,7.3,11.6,6.5,13.6,6.5L13.6,6.5z M18.3,8.8c-1.2-1.2-2.9-2-4.7-2c-1.8,0-3.5,0.8-4.7,2c-1.2,1.2-2,2.9-2,4.7
				c0,1.9,0.7,3.5,2,4.7c1.2,1.2,2.9,2,4.7,2c1.9,0,3.5-0.7,4.7-2c1.2-1.2,2-2.9,2-4.7C20.3,11.7,19.5,10,18.3,8.8L18.3,8.8z
				 M13.6,4.3L13.6,4.3c2.6,0,4.9,1,6.5,2.7c1.7,1.7,2.7,4,2.7,6.5l0,0c0,2.6-1,4.9-2.7,6.5c-1.7,1.7-4,2.7-6.5,2.7
				c-2.6,0-4.9-1-6.5-2.7c-1.7-1.7-2.7-4-2.7-6.5l0,0C4.3,11,5.4,8.6,7,7C8.7,5.3,11,4.3,13.6,4.3L13.6,4.3z M13.6,4.6L13.6,4.6
				L13.6,4.6c-2.5,0-4.7,1-6.3,2.6C5.7,8.8,4.7,11,4.7,13.5l0,0c0,2.5,1,4.7,2.6,6.3c1.6,1.6,3.8,2.6,6.3,2.6c2.5,0,4.7-1,6.3-2.6
				c1.6-1.6,2.6-3.8,2.6-6.3l0,0c0-2.5-1-4.7-2.6-6.3C18.3,5.6,16,4.6,13.6,4.6L13.6,4.6z M13.5,2.2c3.1,0,5.9,1.3,8,3.3
				c2,2,3.3,4.9,3.3,8c0,3.1-1.3,5.9-3.3,8c-2,2-4.9,3.3-8,3.3c-3.1,0-5.9-1.3-8-3.3c-2-2-3.3-4.9-3.3-8l0,0l0,0
				c0-3.1,1.3-5.9,3.3-8C7.6,3.5,10.4,2.2,13.5,2.2L13.5,2.2L13.5,2.2z M21.3,5.7c-2-2-4.7-3.2-7.8-3.2l0,0l0,0
				c-3,0-5.8,1.2-7.8,3.2s-3.2,4.7-3.2,7.8l0,0l0,0c0,3,1.2,5.8,3.2,7.8c2,2,4.7,3.2,7.8,3.2s5.8-1.2,7.8-3.2c2-2,3.2-4.7,3.2-7.8
				C24.5,10.5,23.2,7.7,21.3,5.7L21.3,5.7z M13.5,0c3.7,0,7.1,1.5,9.5,4s4,5.8,4,9.5l0,0c0,3.7-1.5,7.1-4,9.5s-5.8,4-9.5,4
				c-3.7,0-7.1-1.5-9.5-4s-4-5.8-4-9.5l0,0C0,9.8,1.5,6.4,4,4S9.8,0,13.5,0L13.5,0z M22.8,4.2c-2.4-2.4-5.7-3.9-9.3-3.9
				S6.6,1.8,4.2,4.2c-2.4,2.4-3.9,5.7-3.9,9.3h0c0,3.6,1.5,6.9,3.9,9.3c2.4,2.4,5.7,3.9,9.3,3.9s6.9-1.5,9.3-3.9s3.9-5.7,3.9-9.3
				l0,0C26.7,9.9,25.2,6.6,22.8,4.2L22.8,4.2z"/>
		</defs>
		<use xlink:href="#SVGID_1_"  style="overflow:visible;fill-rule:evenodd;clip-rule:evenodd;fill:#FFFFFF;"/>
		<clipPath id="SVGID_2_">
			<use xlink:href="#SVGID_1_"  style="overflow:visible;"/>
		</clipPath>
	</g>
	<path class="st1" d="M5.3,16.5c0.3,0,0.5,0.2,0.5,0.5c0,0.3-0.2,0.5-0.5,0.5c-0.3,0-0.5-0.2-0.5-0.5C4.8,16.7,5,16.5,5.3,16.5
		L5.3,16.5z"/>
	<path class="st0" d="M18.1,14.5c0.4,0,0.7,0.3,0.7,0.7c0,0.4-0.3,0.7-0.7,0.7c-0.4,0-0.7-0.3-0.7-0.7
		C17.3,14.8,17.6,14.5,18.1,14.5L18.1,14.5z"/>
	<path class="st0" d="M6.1,23.7c0.4,0,0.7,0.3,0.7,0.7c0,0.4-0.3,0.7-0.7,0.7c-0.4,0-0.7-0.3-0.7-0.7C5.3,24.1,5.7,23.7,6.1,23.7
		L6.1,23.7z"/>
	<path class="st0" d="M11.1,23.6c0.4,0,0.7,0.3,0.7,0.7c0,0.4-0.3,0.7-0.7,0.7c-0.4,0-0.7-0.3-0.7-0.7C10.4,24,10.7,23.6,11.1,23.6
		L11.1,23.6z"/>
	<path class="st2" d="M6.6,1.2c0.5,0,0.9,0.4,0.9,0.9c0,0.5-0.4,0.9-0.9,0.9c-0.5,0-0.9-0.4-0.9-0.9C5.7,1.6,6.1,1.2,6.6,1.2
		L6.6,1.2z"/>
	<path class="st0" d="M13,1.9c0.3,0,0.5,0.2,0.5,0.5c0,0.3-0.2,0.5-0.5,0.5c-0.3,0-0.5-0.2-0.5-0.5C12.6,2.1,12.8,1.9,13,1.9L13,1.9
		z"/>
	<path class="st0" d="M5.3,16.5c0.3,0,0.5,0.2,0.5,0.5c0,0.3-0.2,0.5-0.5,0.5c-0.3,0-0.5-0.2-0.5-0.5C4.8,16.7,5,16.5,5.3,16.5
		L5.3,16.5z"/>
</g>
<g>
	<path class="st3" d="M35.1,18.9v-2.5c0.5,0.4,0.9,0.7,1.5,0.9c0.5,0.2,1.1,0.3,1.6,0.3c0.3,0,0.6,0,0.8-0.1s0.4-0.1,0.6-0.2
		c0.2-0.1,0.3-0.2,0.4-0.4c0.1-0.1,0.1-0.3,0.1-0.4c0-0.2-0.1-0.4-0.2-0.6c-0.1-0.2-0.3-0.3-0.5-0.5c-0.2-0.1-0.5-0.3-0.8-0.4
		c-0.3-0.1-0.6-0.3-1-0.4c-0.9-0.4-1.5-0.8-2-1.3c-0.4-0.5-0.6-1.2-0.6-1.9c0-0.6,0.1-1.1,0.4-1.5c0.2-0.4,0.6-0.8,1-1
		c0.4-0.3,0.9-0.5,1.4-0.6c0.5-0.1,1.1-0.2,1.7-0.2c0.6,0,1.1,0,1.6,0.1c0.5,0.1,0.9,0.2,1.2,0.3v2.3c-0.2-0.1-0.4-0.2-0.6-0.3
		c-0.3-0.3-0.5-0.4-0.8-0.4C40.7,10,40.4,10,40.2,10s-0.5,0-0.7,0c-0.3,0-0.5,0-0.8,0.1s-0.4,0-0.5,0.1c-0.2,0.1-0.3,0.2-0.4,0.4
		c-0.1,0.1-0.1,0.3-0.1,0.5s0,0.4,0.1,0.5s0.2,0.3,0.4,0.4c0.2,0.1,0.4,0.3,0.7,0.4c0.3,0.1,0.6,0.3,0.9,0.4
		c0.4,0.2,0.9,0.4,1.2,0.6c0.4,0.2,0.7,0.4,0.9,0.7c0.3,0.3,0.5,0.6,0.6,0.9c0.1,0.3,0.2,0.7,0.2,1.2c0,0.6-0.1,1.1-0.4,1.6
		c-0.2,0.4-0.6,0.8-1,1c-0.4,0.3-0.9,0.5-1.4,0.6s-1.1,0.2-1.7,0.2c-0.6,0-1.2-0.1-1.8-0.2S35.5,19.1,35.1,18.9z"/>
	<path class="st3" d="M48.1,19.5c-1.3,0-2.4-0.4-3.1-1.1c-0.8-0.7-1.1-1.8-1.1-3c0-1.3,0.4-2.4,1.2-3.1c0.8-0.7,1.9-1.1,3.2-1.1
		s2.4,0.4,3.1,1.1c0.8,0.7,1.1,1.7,1.1,3s-0.4,2.4-1.2,3.1S49.5,19.5,48.1,19.5z M48.2,13c-0.6,0-1,0.2-1.4,0.6
		c-0.3,0.4-0.5,1-0.5,1.7c0,1.5,0.6,2.3,1.9,2.3c1.2,0,1.8-0.8,1.8-2.4C50,13.7,49.4,13,48.2,13z"/>
	<path class="st3" d="M56.5,16.6c0,0.3,0.1,0.6,0.2,0.8c0.2,0.2,0.4,0.3,0.6,0.3c0.1,0,0.3,0,0.4,0c0.1,0,0.3-0.1,0.4-0.1v1.7
		c-0.3,0.1-0.6,0.1-0.9,0.2c-0.3,0-0.7,0.1-1,0.1s-0.6-0.1-0.9-0.2c-0.3-0.1-0.5-0.3-0.7-0.5s-0.3-0.5-0.4-0.7
		c-0.1-0.3-0.2-0.6-0.2-1V7.4h2.5C56.5,7.4,56.5,16.6,56.5,16.6z"/>
	<path class="st3" d="M65.9,19.3h-2.3v-1.2l0,0c-0.5,0.9-1.3,1.3-2.4,1.3c-0.8,0-1.4-0.2-1.8-0.7c-0.4-0.4-0.7-1-0.7-1.8
		c0-1.6,0.9-2.4,2.8-2.7l2.2-0.3c0-0.9-0.5-1.3-1.4-1.3c-1,0-1.9,0.3-2.7,0.9v-1.9c0.3-0.2,0.8-0.3,1.4-0.5c0.6-0.1,1.1-0.2,1.6-0.2
		c2.3,0,3.4,1.1,3.4,3.4L65.9,19.3L65.9,19.3z M63.6,16v-0.5l-1.5,0.2c-0.8,0.1-1.2,0.5-1.2,1.1c0,0.3,0.1,0.5,0.3,0.7
		s0.5,0.3,0.8,0.3c0.5,0,0.8-0.2,1.1-0.5C63.4,16.9,63.6,16.5,63.6,16z"/>
	<path class="st3" d="M73.1,13.5c-0.3-0.2-0.6-0.2-1-0.2c-0.5,0-1,0.2-1.3,0.6c-0.3,0.4-0.5,0.9-0.5,1.6v3.8h-2.5v-8h2.5v1.5l0,0
		c0.4-1.1,1.1-1.6,2.1-1.6c0.3,0,0.5,0,0.6,0.1v2.2H73.1z"/>
	<path class="st3" d="M78.3,18.9v-2.5c0.5,0.4,0.9,0.7,1.5,0.9c0.5,0.2,1.1,0.3,1.6,0.3c0.3,0,0.6,0,0.8-0.1
		c0.2-0.1,0.4-0.1,0.6-0.2s0.3-0.2,0.4-0.4c0.1-0.1,0.1-0.3,0.1-0.4c0-0.2-0.1-0.4-0.2-0.6c-0.1-0.2-0.3-0.3-0.5-0.5
		c-0.2-0.1-0.5-0.3-0.8-0.4c-0.3-0.1-0.6-0.3-1-0.4c-0.9-0.4-1.5-0.8-2-1.3c-0.4-0.5-0.6-1.2-0.6-1.9c0-0.6,0.1-1.1,0.4-1.5
		c0.2-0.4,0.6-0.8,1-1C80,8.6,80.5,8.4,81,8.3c0.5-0.1,1.1-0.2,1.7-0.2s1.1,0,1.6,0.1c0.5,0.1,0.9,0.2,1.2,0.3v2.3
		c-0.2-0.1-0.4-0.2-0.6-0.3c-0.2-0.3-0.5-0.4-0.7-0.4C84,10,83.7,10,83.5,10s-0.5,0-0.7,0c-0.3,0-0.5,0-0.8,0.1s-0.4,0-0.5,0.1
		c-0.2,0.1-0.3,0.2-0.4,0.4C81,10.7,81,10.9,81,11.1s0,0.4,0.1,0.5s0.2,0.3,0.4,0.4s0.4,0.3,0.7,0.4c0.3,0.1,0.6,0.3,0.9,0.4
		c0.4,0.2,0.9,0.4,1.2,0.6s0.7,0.4,0.9,0.7s0.5,0.6,0.6,0.9c0.1,0.3,0.2,0.7,0.2,1.2c0,0.6-0.1,1.1-0.4,1.6c-0.2,0.4-0.6,0.8-1,1
		c-0.4,0.3-0.9,0.5-1.4,0.6s-1.1,0.2-1.7,0.2s-1.2-0.1-1.8-0.2S78.7,19.1,78.3,18.9z"/>
	<path class="st3" d="M92,19.2c-0.4,0.2-0.9,0.3-1.6,0.3c-1.7,0-2.6-0.9-2.6-2.7v-3.7h-1.3v-1.8h1.3V9.6l2.5-0.7v2.4h1.8v1.8h-1.8
		v3.2c0,0.8,0.3,1.2,1,1.2c0.3,0,0.5-0.1,0.8-0.2v1.9H92z"/>
	<path class="st3" d="M101,19.3h-2.5v-1.2l0,0c-0.6,0.9-1.4,1.4-2.4,1.4c-1.9,0-2.8-1.1-2.8-3.4v-4.8h2.5v4.6c0,1.1,0.4,1.7,1.3,1.7
		c0.4,0,0.8-0.2,1.1-0.5c0.3-0.3,0.4-0.7,0.4-1.3v-4.6h2.5L101,19.3L101,19.3z"/>
	<path class="st3" d="M110.9,19.3h-2.5v-1.1l0,0c-0.6,0.9-1.4,1.3-2.5,1.3c-1,0-1.8-0.4-2.4-1.1s-0.9-1.7-0.9-3s0.3-2.4,1-3.2
		s1.6-1.2,2.6-1.2s1.8,0.4,2.2,1.1l0,0V7.4h2.5C110.9,7.4,110.9,19.3,110.9,19.3z M108.5,15.4v-0.6c0-0.5-0.2-1-0.5-1.3
		s-0.7-0.5-1.2-0.5s-1,0.2-1.3,0.6s-0.5,1-0.5,1.8c0,0.7,0.1,1.2,0.4,1.6c0.3,0.4,0.7,0.6,1.2,0.6s0.9-0.2,1.2-0.6
		C108.3,16.6,108.5,16.1,108.5,15.4z"/>
	<path class="st3" d="M114.2,10c-0.4,0-0.8-0.1-1-0.4c-0.3-0.2-0.4-0.6-0.4-0.9c0-0.4,0.1-0.7,0.4-0.9s0.6-0.4,1-0.4s0.8,0.1,1,0.4
		c0.2,0.3,0.4,0.5,0.4,0.9c0,0.4-0.1,0.7-0.4,0.9C115,9.9,114.6,10,114.2,10z M115.4,16.6c0,0.3,0.1,0.6,0.2,0.8
		c0.2,0.2,0.4,0.3,0.6,0.3c0.1,0,0.3,0,0.4,0s0.3-0.1,0.4-0.1v1.7c-0.3,0.1-0.6,0.1-0.9,0.2c-0.3,0-0.7,0.1-1,0.1s-0.6-0.1-0.9-0.2
		s-0.5-0.3-0.7-0.5s-0.3-0.5-0.4-0.7c-0.1-0.3-0.2-0.6-0.2-1v-5.8h2.5V16.6z"/>
	<path class="st3" d="M121.9,19.5c-1.3,0-2.4-0.4-3.1-1.1c-0.8-0.7-1.1-1.8-1.1-3c0-1.3,0.4-2.4,1.2-3.1c0.8-0.7,1.9-1.1,3.2-1.1
		c1.3,0,2.4,0.4,3.1,1.1c0.8,0.7,1.1,1.7,1.1,3s-0.4,2.4-1.2,3.1C124.4,19.1,123.3,19.5,121.9,19.5z M122,13c-0.6,0-1,0.2-1.4,0.6
		c-0.3,0.4-0.5,1-0.5,1.7c0,1.5,0.6,2.3,1.9,2.3c1.2,0,1.8-0.8,1.8-2.4C123.8,13.7,123.2,13,122,13z"/>
</g>
</svg>
